<?xml version="1.0" standalone="no"?><svg xmlns="http://www.w3.org/2000/svg" viewBox="0 0 1440 320"><path fill="#49605a" fill-opacity="1" d="M0,128L12,128C24,128,48,128,72,149.3C96,171,120,213,144,229.3C168,245,192,235,216,192C240,149,264,75,288,74.7C312,75,336,149,360,186.7C384,224,408,224,432,192C456,160,480,96,504,90.7C528,85,552,139,576,160C600,181,624,171,648,181.3C672,192,696,224,720,240C744,256,768,256,792,240C816,224,840,192,864,170.7C888,149,912,139,936,149.3C960,160,984,192,1008,192C1032,192,1056,160,1080,138.7C1104,117,1128,107,1152,101.3C1176,96,1200,96,1224,106.7C1248,117,1272,139,1296,165.3C1320,192,1344,224,1368,229.3C1392,235,1416,213,1428,202.7L1440,192L1440,0L1428,0C1416,0,1392,0,1368,0C1344,0,1320,0,1296,0C1272,0,1248,0,1224,0C1200,0,1176,0,1152,0C1128,0,1104,0,1080,0C1056,0,1032,0,1008,0C984,0,960,0,936,0C912,0,888,0,864,0C840,0,816,0,792,0C768,0,744,0,720,0C696,0,672,0,648,0C624,0,600,0,576,0C552,0,528,0,504,0C480,0,456,0,432,0C408,0,384,0,360,0C336,0,312,0,288,0C264,0,240,0,216,0C192,0,168,0,144,0C120,0,96,0,72,0C48,0,24,0,12,0L0,0Z"></path></svg>