<?xml version="1.0" standalone="no"?><svg xmlns="http://www.w3.org/2000/svg" viewBox="0 0 1440 320"><path fill="#49605a" fill-opacity="1" d="M0,160L24,165.3C48,171,96,181,144,170.7C192,160,240,128,288,117.3C336,107,384,117,432,133.3C480,149,528,171,576,176C624,181,672,171,720,192C768,213,816,267,864,266.7C912,267,960,213,1008,170.7C1056,128,1104,96,1152,90.7C1200,85,1248,107,1296,106.7C1344,107,1392,85,1416,74.7L1440,64L1440,320L1416,320C1392,320,1344,320,1296,320C1248,320,1200,320,1152,320C1104,320,1056,320,1008,320C960,320,912,320,864,320C816,320,768,320,720,320C672,320,624,320,576,320C528,320,480,320,432,320C384,320,336,320,288,320C240,320,192,320,144,320C96,320,48,320,24,320L0,320Z"></path></svg>