<?xml version="1.0" standalone="no"?><svg xmlns="http://www.w3.org/2000/svg" viewBox="0 0 1440 320"><path fill="#49605a" fill-opacity="1" d="M0,160L24,165.3C48,171,96,181,144,170.7C192,160,240,128,288,117.3C336,107,384,117,432,133.3C480,149,528,171,576,176C624,181,672,171,720,192C768,213,816,267,864,266.7C912,267,960,213,1008,170.7C1056,128,1104,96,1152,90.7C1200,85,1248,107,1296,106.7C1344,107,1392,85,1416,74.7L1440,64L1440,0L1416,0C1392,0,1344,0,1296,0C1248,0,1200,0,1152,0C1104,0,1056,0,1008,0C960,0,912,0,864,0C816,0,768,0,720,0C672,0,624,0,576,0C528,0,480,0,432,0C384,0,336,0,288,0C240,0,192,0,144,0C96,0,48,0,24,0L0,0Z"></path></svg>